PathFileType	4	(X/Y/Z)	/home/abdul/Desktop/myosuite/custom_workspace/IK/output/S5_12_2.trc
DataRate	CameraRate	NumFrames	NumMarkers	Units	OrigDataRate	OrigDataStartFrame	OrigNumFrames
200.0	200.0	39	3	mm	200.0	175	1396
Frame#	Time	V_Shoulder			V_Elbow			V_Wrist		
		X1	Y1	Z1	X2	Y2	Z2	X3	Y3	Z3

175	0.87	-1.4636791720335312	724.7695785112004	245.1173333232779	-134.63047472012153	544.8687364600103	25.167732232809815	-34.677487274348465	323.45473867111974	56.58898521853576
176	0.875	-1.444860022785762	724.6388151003704	245.14584905831052	-134.42911035170926	544.7405756942264	24.97709385648806	-34.6248311515504	323.2356053499413	56.17334314196759
177	0.88	-1.4267527906363693	724.510554037406	245.17461239072668	-134.23281674168575	544.618107571208	24.78939842292546	-34.581711995836734	323.0201041104448	55.76295792732678
178	0.885	-1.409321494729232	724.3849125329762	245.20359152519646	-134.04158252546725	544.5012978431826	24.604830366542938	-34.54792322392012	322.80820439607965	55.35759953809091
179	0.89	-1.392530955408107	724.2619997326792	245.23275348534244	-133.85539160659155	544.3901051193523	24.42356028073861	-34.52326079096268	322.59985667747594	54.95701908438763
180	0.895	-1.3763469132033708	724.1419165128488	245.26206423901422	-133.67422384286994	544.2844812950691	24.245744725989944	-34.50752295959495	322.3949934770355	54.56095164830455
181	0.9	-1.360736144531752	724.0247553042642	245.29148882430516	-133.498055743104	544.1843719981127	24.071526082966972	-34.500510022687386	322.1935304920023	54.1691191734537
182	0.905	-1.3456665736950153	723.9105999443267	245.3209914759714	-133.32686117110617	544.0897170502841	23.90103245090763	-34.50202398131223	321.99536781282404	53.781233408665784
183	0.91	-1.3311073807728304	723.7995255581646	245.35053575192237	-133.16061205370718	544.0004509424534	23.734377591384327	-34.511868179552714	321.80039123322223	53.39699889563099
184	0.915	-1.3170291050159018	723.6915984690439	245.3800846594589	-132.9992790893914	543.9165033211308	23.57166091747123	-34.529846898035	321.6084736480052	53.016115990265334
185	0.92	-1.3034037433577177	723.5868761383546	245.4096007809479	-132.8428324541727	543.8377994845582	23.41296752820508	-34.55576490827356	321.4194765342742	52.63828390756306
186	0.925	-1.2902048436770652	723.4854071353542	245.43904639862967	-132.6912425013084	543.7642608862639	23.258368288118398	-34.589426990133774	321.2332515113002	52.263203779696234
187	0.93	-1.2774075924586532	723.3872311367454	245.46838361826812	-132.54448045144875	543.695805643964	23.107919951513434	-34.63063741492355	321.0496419739827	51.89058171713954
188	0.935	-1.2649888965157325	723.2923789560713	245.49757449136283	-132.40251906983428	543.6323490516511	22.961665331037484	-34.679199396829574	320.868484794449	51.52013186263295
189	0.94	-1.2529274584565486	723.2008726028063	245.5265811356567	-132.26533332718145	543.573804092664	22.81963351001612	-34.7349145156114	320.6896120860033	51.151579427844545
190	0.945	-1.241203845595619	723.112725370932	245.5553658536824	-132.13290104094156	543.5200819515057	22.681840097899663	-34.79758211365661	320.51285302331246	50.784663702660936
191	0.95	-1.229800552031258	723.0279419566787	245.58389124910641	-132.00520349367707	543.4710925221464	22.548287528080326	-34.8669986706833	320.33803571239343	50.419141027112445
192	0.955	-1.2187020536323592	722.9465186050234	245.6121203406407	-131.8822260253717	543.4267449105321	22.418965397242793	-34.94295715954923	320.16498910367125	50.054787716034745
193	0.96	-1.2078948557001203	722.8684432844394	245.64001667330535	-131.76395859658012	543.3869479290158	22.29385084531912	-35.02524638679012	319.9935449410943	49.69140292667704
194	0.965	-1.1973675330940878	722.7936958892909	245.66754442684078	-131.65039631942605	543.3516105804231	22.172908975029912	-35.11365032166206	319.8235397400331	49.32881145959004
195	0.97	-1.1871107626365573	722.7222484691841	245.6946685210786	-131.54153995357393	543.3206425294796	22.056093309907528	-35.207947417602426	319.6548167864471	48.966866483264255
196	0.975	-1.1771173476348722	722.6540654844874	245.7213547180967	-131.43739636443155	543.2939545593485	21.943346289613338	-35.307909930150814	319.48722814958666	48.60545217314179
197	0.98	-1.1673822343874785	722.589104087152	245.74756972099513	-131.33797894098547	543.271459011051	21.834599801279577	-35.41330323548316	319.320636700302	48.24448625579235
198	0.985	-1.1579025205665818	722.5273144258737	245.77328126914458	-131.24330797082905	543.2530702035947	21.729775745527114	-35.523885153809935	319.154918126865	47.883922449227754
199	0.99	-1.148677455397851	722.4686399745602	245.79845822977168	-131.15341097011455	543.2387048326766	21.628786635732997	-35.63940528196952	318.98996294006525	47.52375279052971
200	0.995	-1.1397084315857475	722.413017882985	245.82307068575793	-131.06832296634275	543.2282823458984	21.531536229045944	-35.759604339611656	318.8256784592285	47.16400984218315
201	1.0	-1.1309989689616085	722.3603793484376	245.84709001954283	-130.98808673209794	543.2217252924986	21.43792018757383	-35.88421353341095	318.66199077072275	46.80476876874345
202	1.005	-1.1225546898603895	722.3106500071095	245.8704889930341	-130.91275296804196	543.218959645699	21.347826768094244	-36.01295394377719	318.4988466504608	46.446149275721666
203	1.01	-1.1143832862611394	722.2637503438813	245.89324182343913	-130.8423804336951	543.2199150958509	21.261137538567624	-36.14553593853568	318.33621544188725	46.08831740284693
204	1.015	-1.1064944787553588	722.2195961191263	245.91532425494563	-130.77703602475614	543.2245253126779	21.177728119661825	-36.28165861803684	318.1740908809466	45.73148716416275
205	1.02	-1.0988999674366555	722.1780988110763	245.93671362618792	-130.71679479594548	543.2327281750286	21.09746894942724	-36.42100929611958	318.0124928595732	45.37592202773327
206	1.025	-1.091613374834168	722.1391660722489	245.9573889334495	-130.66173992859552	543.2444659666797	21.020226069192773	-36.56326302129605	317.85146911931986	45.021936228078296
207	1.03	-1.0846501810411198	722.1027021983855	245.97733088956093	-130.61196264245768	543.2596855368679	20.945861928685098	-36.70808214244659	317.6910968668551	44.66989590482333
208	1.035	-1.0780276512184772	722.0686086083068	245.99652197846214	-130.56756205144615	543.2783384243774	20.874236208306485	-36.85511592321205	317.53148430320346	44.32022006144303
209	1.04	-1.0717647556818493	722.036784333055	246.01494650540903	-130.52864496329408	543.300380944168	20.805206656440408	-37.00400020914653	317.37277205878746	43.973381338395555
210	1.045	-1.0658820828074023	722.0071265126593	246.0325906428126	-130.49532562335548	543.3257742356916	20.738629939589035	-37.15435715154584	317.2151345265478	43.62990659538997
211	1.05	-1.0604017450196472	721.9795308988329	246.04944247170656	-130.46772540304565	543.3544842722222	20.674362503082772	-37.30579499169655	317.05878108566804	43.29037729800207
212	1.055	-1.0553472781502287	721.9538923618958	246.0654920188476	-130.4459724336744	543.3864818307046	20.612261440039596	-37.45790790909718	316.9039572087239	42.95542970435368
213	1.06	-1.050743534482363	721.9301054001893	246.08073128946248	-130.43020118668505	543.4217424218182	20.552185366191335	-37.61027593698592	316.7509454453975	42.625754848098865
